PathFileType	4	(X/Y/Z)	OpenSim_Sub06_CSStiffKnee_Accel.trc
DataRate	CameraRate	NumFrames	NumMarkers	Units	OrigDataRate	OrigDataStartFrame	OrigNumFrames
100	100	20	8	m	100	2687	7164
Frame#	Time	torso_imu_offset_imu	pelvis_imu_offset_imu	tibia_r_imu_offset_imu	femur_r_imu_offset_imu	tibia_l_imu_offset_imu	femur_l_imu_offset_imu	toes_r_imu_offset_imu	toes_l_imu_offset_imu
				X1	Y1	Z1	X2	Y2	Z2	X3	Y3	Z3	X4	Y4	Z4	X5	Y5	Z5	X6	Y6	Z6	X7	Y7	Z7	X8		Y8	Z8	

2687	26.86000000	8.88785324	0.80924112	4.29297253	6.97640016	0.96941777	6.22891002	10.02525820	3.30589197	0.93767626	8.82591340	-0.56890580	2.47062377	9.38523019	-5.21405872	0.30485835	8.04551900	-1.68700086	-5.50713278	11.38615527	-5.59382076	7.71449426	5.13750908	0.81944386	11.30233850
2688	26.87000000	8.47562248	0.62712382	4.13713028	6.90602498	-0.24523169	6.16878112	8.65265493	4.17452013	0.83880745	8.80071660	-0.74707580	2.83026503	8.69347106	-5.69143893	1.16132277	10.57811486	0.07588535	-5.76550462	10.94366720	-5.89345058	5.57510308	5.01453560	0.52893096	11.30628343
2689	26.88000000	8.29631062	0.64332703	3.94527359	6.74442355	-1.38901374	6.25812565	7.30762492	4.96360321	1.28958156	8.45925439	-0.72903827	3.71083874	8.16081032	-4.10678793	2.58956182	11.98400121	1.01258943	-5.60879062	10.27120995	-3.85603059	3.50727462	4.04127367	0.67157267	11.69212666
2690	26.89000000	8.20452169	0.83934226	3.86545847	6.66837578	-2.36912982	6.25617798	6.23925482	5.56643773	1.73801116	8.73821761	-0.68729880	4.33685107	8.75208049	-1.22525551	3.06796596	12.33458213	1.43713496	-5.03187829	8.22474470	-0.40858215	5.67982094	4.29250506	0.44816088	11.68337225
2691	26.90000000	8.17666998	1.34454773	3.99325408	6.73654863	-3.11061561	6.21445675	5.15910042	5.96698266	1.64191753	9.67807484	-0.27264944	4.66468951	9.89659013	0.47999818	3.15773338	10.90306014	1.70477789	-2.53459396	13.04125684	-0.28719446	15.21913299	4.65463168	0.56227397	11.55246558
2692	26.91000000	8.33693362	1.75587617	3.96690069	6.93252881	-3.61516737	6.22926679	4.50555112	6.80400311	1.11430168	9.63169915	0.42442838	4.81774907	10.43248826	-0.08496064	2.79587624	9.52085333	2.77951121	0.08973625	20.40723976	-6.32605336	17.36916523	4.81677720	0.58075723	11.35862271
2693	26.92000000	8.48471818	2.06308711	3.75932798	7.34025940	-3.96106512	6.22719662	4.63616398	8.04936830	0.71462610	9.61815762	0.97204770	4.35907102	10.15045038	-1.21536732	2.54661122	9.04214728	2.62908415	0.68194911	2.20750713	-10.11173640	10.06360774	4.81967751	0.47062776	11.42544572
2694	26.93000000	8.67351247	2.33986503	3.81068354	7.66655040	-4.06416731	6.19742868	4.81553836	7.94713365	0.33464326	10.44647351	0.98741458	3.56332121	9.75118144	-2.02310372	1.94639116	9.70673608	2.28251125	-0.11411741	-2.96872682	-8.53556976	6.32629950	4.86368114	0.63221103	11.48355486
2695	26.94000000	8.66701809	2.47963807	4.06031238	7.87202731	-3.92078954	6.32931722	4.78095188	6.92123085	1.61254297	10.65193922	0.76370260	2.60884384	9.46102450	-2.20654313	1.46361293	9.38580593	3.02277787	-0.99516944	0.41537806	-7.27163214	7.03207659	5.07705196	0.83119475	11.38213676
2696	26.95000000	8.51123996	2.43226977	4.29761727	7.86528866	-3.57263728	6.49329166	4.71150076	6.09816078	3.69981356	10.08862164	0.60598537	2.17665167	9.51656389	-2.02907857	1.37907767	9.09183050	3.42059452	-2.39159842	1.56777629	-6.34957196	7.98967934	5.16097573	0.85335602	11.35580587
2697	26.96000000	8.60923999	2.24413550	4.34533580	7.75938532	-3.25837113	6.53194388	4.59700247	5.56447097	3.80677656	9.45007885	0.30806289	2.14962309	9.87594871	-1.70285635	1.33833899	9.38348301	3.02439545	-3.09188036	1.65290241	-5.99384750	8.63730360	5.21370646	0.96600558	11.21572350
2698	26.97000000	8.65224155	2.08794303	4.39646468	7.41865896	-2.77928048	6.45231805	4.75988183	5.13027622	3.18273865	9.40120531	0.00173335	1.93424505	10.04072033	-1.20883847	1.43524352	8.29437003	2.28469071	-2.78216832	1.63740086	-5.77809353	9.09119994	4.75994170	1.03748653	11.34004991
2699	26.98000000	8.70448453	1.97836144	4.52924797	7.09179736	-2.23050940	6.30480275	4.99028942	4.42273948	3.19326859	9.14161969	-0.08133361	1.73776185	9.99948773	-0.82534964	1.61710908	8.34291146	1.01590565	-2.88245657	1.28576617	-5.26177966	9.24996133	5.09136718	0.94576325	11.26307786
2700	26.99000000	8.71153166	1.87144297	4.56701228	7.03150401	-1.41964008	6.17373995	5.01563910	3.47218397	3.44279028	9.02381272	-0.02173108	1.57688653	9.81190752	-0.67620260	1.67778223	8.62083952	0.40139797	-2.94387735	0.89373285	-4.38788709	9.36331646	5.14141181	0.81574711	11.12696646
2701	27.00000000	8.39896982	1.83711677	4.55454713	6.97334725	-0.95678550	6.16485886	5.14864247	2.66971339	3.61437090	8.98255231	0.08190775	1.53916311	9.80211769	-0.90422114	1.58122162	9.68902451	0.06733717	-3.24873610	1.15540624	-3.17845789	9.80884746	4.96610348	0.98816945	11.17651575
2702	27.01000000	8.27727362	1.78345598	4.60688893	7.03679243	-0.61013910	6.14114978	5.45715511	2.46057402	3.84796155	8.98300189	0.06902399	1.69692007	9.81264540	-1.27164912	1.43880939	9.96939105	-0.06481074	-3.36535284	1.46389019	-1.99773392	10.20575114	4.97106066	0.87234425	11.14023778
2703	27.02000000	8.50797874	1.75439807	4.60922409	6.86611412	-0.68369131	6.08751627	5.90489407	2.62643600	3.81138968	8.87396762	-0.08303830	1.81975636	9.83630589	-1.51669728	1.36395353	9.30122085	0.06874755	-2.95346819	1.80274343	-1.08772767	10.47416124	4.50205411	0.99934707	11.42952119
2704	27.03000000	8.77315065	1.77195800	4.58925993	6.82815366	-0.82264059	5.87320552	6.38080363	2.88356791	3.65170977	8.79023060	-0.35740911	2.00163581	9.87342300	-1.58850947	1.33694739	10.01671069	0.08751394	-2.80253022	2.18889208	-0.87694788	10.65710233	5.05650612	1.03106588	11.26554639
2705	27.04000000	8.81273384	1.81846919	4.63132134	6.94401548	-1.08948247	5.67975943	6.70448235	3.16648195	3.56295031	8.57114137	-0.65285077	2.24140215	10.11839252	-1.26222078	1.33941138	9.67560681	0.41849060	-2.54644125	2.43434923	-1.06768329	10.66785649	5.22718814	0.86023886	11.06203585
2706	27.05000000	8.77129408	1.88153562	4.69001709	7.20489790	-1.40339390	5.53233354	6.98818611	3.53398097	3.49163888	8.37768543	-0.92239278	2.51807242	10.08229837	-1.04354218	1.34016860	9.23143157	0.52307245	-2.63949745	2.86550467	-1.28379656	10.80764229	5.21915917	0.65310386	11.05135583
